<svg width="321" height="132" viewBox="0 0 321 132" fill="none" xmlns="http://www.w3.org/2000/svg">
<path fill-rule="evenodd" clip-rule="evenodd" d="M0 0.0431741H52.0799C58.9167 -0.223302 65.7717 0.744493 72.3098 2.92635C81.785 6.08836 90.261 11.6888 96.8858 19.1648C103.511 26.6409 108.051 35.729 110.05 45.5158C110.82 49.2871 111.203 53.111 111.201 56.9291C111.201 63.0264 110.221 69.1092 108.275 74.94C105.113 84.4153 99.5126 92.8913 92.0366 99.5161C90.1092 101.224 88.0747 102.793 85.9486 104.216L103.749 131.127L43.7066 131.126L7.7147 82.6645L54.2413 56.887H0V0.0431741ZM254.491 85.1205V130.502H261.236V113.017H262.284C262.808 113.89 263.506 114.742 264.379 115.571C265.253 116.357 266.409 117.012 267.85 117.536C269.291 118.06 271.059 118.322 273.154 118.322C275.861 118.322 278.35 117.667 280.62 116.357C282.89 115.047 284.702 113.17 286.055 110.725C287.408 108.237 288.085 105.246 288.085 101.754V100.771C288.085 97.2789 287.387 94.3102 285.99 91.8655C284.636 89.377 282.824 87.4779 280.554 86.1682C278.328 84.8585 275.861 84.2037 273.154 84.2037C270.011 84.2037 267.588 84.7712 265.886 85.9063C264.227 87.0414 262.982 88.3293 262.153 89.7699H261.105V85.1205H254.491ZM278.459 109.612C276.581 111.489 274.159 112.428 271.19 112.428C268.309 112.428 265.907 111.489 263.986 109.612C262.109 107.735 261.171 105.05 261.171 101.557V100.968C261.171 97.519 262.109 94.856 263.986 92.9787C265.907 91.1015 268.309 90.1628 271.19 90.1628C274.115 90.1628 276.516 91.1015 278.393 92.9787C280.314 94.856 281.275 97.519 281.275 100.968V101.557C281.275 105.05 280.336 107.735 278.459 109.612ZM231.294 118.322C228.063 118.322 225.182 117.667 222.65 116.357C220.161 115.004 218.197 113.083 216.756 110.594C215.316 108.106 214.595 105.159 214.595 101.754V100.771C214.595 97.3662 215.316 94.4412 216.756 91.9964C218.197 89.508 220.161 87.5871 222.65 86.2337C225.182 84.8804 228.063 84.2037 231.294 84.2037C234.525 84.2037 237.406 84.8804 239.938 86.2337C242.47 87.5871 244.457 89.508 245.897 91.9964C247.338 94.4412 248.058 97.3662 248.058 100.771V101.754C248.058 105.159 247.338 108.106 245.897 110.594C244.457 113.083 242.47 115.004 239.938 116.357C237.406 117.667 234.525 118.322 231.294 118.322ZM231.294 112.297C234.263 112.297 236.664 111.358 238.497 109.481C240.375 107.56 241.313 104.919 241.313 101.557V100.968C241.313 97.6064 240.396 94.9869 238.563 93.1097C236.729 91.1888 234.306 90.2283 231.294 90.2283C228.369 90.2283 225.968 91.1888 224.091 93.1097C222.257 94.9869 221.34 97.6064 221.34 100.968V101.557C221.34 104.919 222.257 107.56 224.091 109.481C225.968 111.358 228.369 112.297 231.294 112.297ZM193.958 85.1209V117.405H200.703V98.4144C200.703 95.926 201.401 94.0924 202.798 92.9137C204.195 91.6913 205.985 91.0801 208.168 91.0801H212.294V84.9899H208.43C206.727 84.9899 205.287 85.3174 204.108 85.9722C202.973 86.5834 202.143 87.5657 201.619 88.9191H200.572V85.1209H193.958ZM150.473 117.405V111.118H156.628V77.8515H150.473V71.5649H168.809C174.921 71.5649 179.592 73.1148 182.822 76.2144C186.097 79.314 187.734 83.9853 187.734 90.2283V98.8068C187.734 105.05 186.097 109.721 182.822 112.821C179.592 115.877 174.921 117.405 168.809 117.405H150.473ZM163.766 110.987H168.874C172.847 110.987 175.794 109.983 177.715 107.975C179.635 105.967 180.596 102.976 180.596 99.0033V89.9663C180.596 85.9499 179.635 82.9594 177.715 80.9948C175.794 79.0303 172.847 78.048 168.874 78.048H163.766V110.987ZM302.663 25.8432V58.1275H309.408V39.1367C309.408 36.6483 310.107 34.8147 311.504 33.636C312.901 32.4136 314.691 31.8024 316.873 31.8024H320.999V25.7122H317.135C315.433 25.7122 313.992 26.0397 312.813 26.6945C311.678 27.3057 310.849 28.288 310.325 29.6414H309.277V25.8432H302.663ZM276.853 59.0439C274.539 59.0439 272.465 58.6509 270.632 57.8651C268.842 57.0793 267.401 55.9224 266.31 54.3944C265.262 52.8664 264.738 51.011 264.738 48.8281C264.738 46.6016 265.262 44.768 266.31 43.3274C267.401 41.843 268.864 40.7298 270.697 39.9876C272.574 39.2454 274.692 38.8744 277.049 38.8744H286.872V36.7788C286.872 34.9016 286.304 33.3954 285.169 32.2603C284.034 31.1253 282.288 30.5577 279.931 30.5577C277.617 30.5577 275.849 31.1034 274.626 32.1949C273.404 33.2863 272.596 34.7051 272.203 36.4514L265.917 34.4214C266.441 32.6751 267.27 31.1034 268.405 29.7064C269.584 28.2657 271.134 27.1088 273.055 26.2357C274.976 25.3625 277.289 24.926 279.996 24.926C284.187 24.926 287.483 25.9956 289.884 28.1348C292.285 30.274 293.486 33.3081 293.486 37.2372V50.5308C293.486 51.8405 294.097 52.4953 295.32 52.4953H298.07V58.1271H293.028C291.5 58.1271 290.255 57.7341 289.295 56.9483C288.335 56.1625 287.854 55.0929 287.854 53.7395V53.5431H286.872C286.523 54.1979 285.999 54.9619 285.3 55.8351C284.602 56.7082 283.576 57.4722 282.223 58.1271C280.869 58.7383 279.079 59.0439 276.853 59.0439ZM277.835 53.4776C280.542 53.4776 282.725 52.7136 284.384 51.1856C286.043 49.614 286.872 47.4748 286.872 44.768V44.1132H277.442C275.652 44.1132 274.212 44.5061 273.12 45.2919C272.029 46.0341 271.483 47.1473 271.483 48.6317C271.483 50.116 272.051 51.2948 273.186 52.1679C274.321 53.041 275.87 53.4776 277.835 53.4776ZM232.805 57.0792C235.076 58.3889 237.542 59.0438 240.205 59.0438C243.349 59.0438 245.75 58.4762 247.409 57.3412C249.111 56.2061 250.377 54.94 251.207 53.543H252.255V58.127H258.869V12.2872H252.124V30.2302H251.076C250.596 29.3571 249.897 28.5276 248.98 27.7418C248.064 26.9123 246.885 26.2356 245.444 25.7117C244.047 25.1878 242.301 24.9259 240.205 24.9259C237.499 24.9259 235.01 25.5808 232.74 26.8905C230.47 28.2002 228.658 30.0992 227.305 32.5877C225.951 35.0761 225.275 38.0448 225.275 41.4937V42.476C225.275 45.9685 225.951 48.959 227.305 51.4475C228.702 53.8923 230.535 55.7695 232.805 57.0792ZM249.308 50.3342C247.431 52.2115 245.029 53.1501 242.104 53.1501C239.223 53.1501 236.822 52.2115 234.901 50.3342C233.024 48.457 232.085 45.7721 232.085 42.2795V41.6902C232.085 38.2413 233.024 35.5782 234.901 33.7009C236.822 31.8237 239.223 30.8851 242.104 30.8851C245.073 30.8851 247.496 31.8237 249.373 33.7009C251.251 35.5782 252.189 38.2413 252.189 41.6902V42.2795C252.189 45.7721 251.229 48.457 249.308 50.3342ZM201.803 59.0439C199.489 59.0439 197.415 58.6509 195.582 57.8651C193.792 57.0793 192.351 55.9224 191.26 54.3944C190.212 52.8664 189.688 51.011 189.688 48.8281C189.688 46.6016 190.212 44.768 191.26 43.3274C192.351 41.843 193.814 40.7298 195.647 39.9876C197.524 39.2454 199.642 38.8744 201.999 38.8744H211.822V36.7788C211.822 34.9016 211.254 33.3954 210.119 32.2603C208.984 31.1253 207.238 30.5577 204.881 30.5577C202.567 30.5577 200.799 31.1034 199.576 32.1949C198.354 33.2863 197.546 34.7051 197.153 36.4514L190.867 34.4214C191.391 32.6751 192.22 31.1034 193.355 29.7064C194.534 28.2657 196.084 27.1088 198.005 26.2357C199.925 25.3625 202.239 24.926 204.946 24.926C209.137 24.926 212.433 25.9956 214.834 28.1348C217.235 30.274 218.436 33.3081 218.436 37.2372V50.5308C218.436 51.8405 219.047 52.4953 220.27 52.4953H223.02V58.1271H217.978C216.45 58.1271 215.205 57.7341 214.245 56.9483C213.284 56.1625 212.804 55.0929 212.804 53.7395V53.5431H211.822C211.473 54.1979 210.949 54.9619 210.25 55.8351C209.552 56.7082 208.526 57.4722 207.173 58.1271C205.819 58.7383 204.029 59.0439 201.803 59.0439ZM202.785 53.4776C205.492 53.4776 207.675 52.7136 209.334 51.1856C210.992 49.614 211.822 47.4748 211.822 44.768V44.1132H202.392C200.602 44.1132 199.161 44.5061 198.07 45.2919C196.979 46.0341 196.433 47.1473 196.433 48.6317C196.433 50.116 197 51.2948 198.136 52.1679C199.271 53.041 200.82 53.4776 202.785 53.4776ZM152.175 12.2872V58.127H159.247V40.053H173.196C174.549 40.053 175.531 40.4023 176.143 41.1008C176.754 41.7993 177.059 42.7379 177.059 43.9167V58.127H184.197V42.9344C184.197 41.0135 183.695 39.551 182.691 38.5469C181.687 37.4991 180.355 36.9316 178.697 36.8442V35.7965C180.661 35.098 182.32 33.8974 183.673 32.1948C185.07 30.4485 185.769 28.1347 185.769 25.2533V24.533C185.769 22.0009 185.158 19.818 183.935 17.9845C182.757 16.1509 181.076 14.7538 178.893 13.7934C176.754 12.7893 174.265 12.2872 171.428 12.2872H152.175ZM170.642 33.6355H159.247V18.7048H170.642C173.218 18.7048 175.182 19.3596 176.536 20.6694C177.933 21.9354 178.631 23.6817 178.631 25.9082V26.4321C178.631 28.6586 177.933 30.4267 176.536 31.7364C175.139 33.0024 173.174 33.6355 170.642 33.6355Z" fill="#070707"/>
</svg>
