<svg width="314" height="215" viewBox="0 0 314 215" fill="none" xmlns="http://www.w3.org/2000/svg">
<path fill-rule="evenodd" clip-rule="evenodd" d="M101 0.214988H153.081C159.918 -0.0512791 166.772 0.916535 173.31 3.09822C182.785 6.26024 191.261 11.8607 197.886 19.3367C204.511 26.8127 209.051 35.9009 211.05 45.6877C211.893 49.8135 212.272 54.0022 212.191 58.1774C212.082 63.9134 211.106 69.6243 209.275 75.1119C206.113 84.5871 200.512 93.0631 193.036 99.6879C191.091 101.412 189.036 102.995 186.888 104.428L204.748 131.299L144.706 131.298L108.714 82.8363L155.254 57.0588H101V0.214988ZM280.316 169.555V214.937H287.061V197.452H288.109C288.633 198.325 289.332 199.177 290.205 200.006C291.078 200.792 292.235 201.447 293.675 201.971C295.116 202.495 296.884 202.757 298.98 202.757C301.686 202.757 304.175 202.102 306.445 200.792C308.715 199.482 310.527 197.605 311.88 195.16C313.234 192.672 313.91 189.681 313.91 186.189V185.206C313.91 181.714 313.212 178.745 311.815 176.3C310.461 173.812 308.65 171.913 306.38 170.603C304.153 169.294 301.686 168.639 298.98 168.639C295.836 168.639 293.413 169.206 291.711 170.341C290.052 171.476 288.808 172.764 287.978 174.205H286.93V169.555H280.316ZM304.284 194.047C302.407 195.924 299.984 196.863 297.015 196.863C294.134 196.863 291.733 195.924 289.812 194.047C287.935 192.17 286.996 189.485 286.996 185.992V185.403C286.996 181.954 287.935 179.291 289.812 177.414C291.733 175.536 294.134 174.598 297.015 174.598C299.94 174.598 302.341 175.536 304.219 177.414C306.139 179.291 307.1 181.954 307.1 185.403V185.992C307.1 189.485 306.161 192.17 304.284 194.047ZM257.119 202.757C253.888 202.757 251.007 202.102 248.475 200.792C245.986 199.439 244.022 197.518 242.581 195.029C241.14 192.541 240.42 189.594 240.42 186.189V185.206C240.42 181.801 241.14 178.876 242.581 176.431C244.022 173.943 245.986 172.022 248.475 170.669C251.007 169.315 253.888 168.639 257.119 168.639C260.349 168.639 263.231 169.315 265.763 170.669C268.295 172.022 270.281 173.943 271.722 176.431C273.163 178.876 273.883 181.801 273.883 185.206V186.189C273.883 189.594 273.163 192.541 271.722 195.029C270.281 197.518 268.295 199.439 265.763 200.792C263.231 202.102 260.349 202.757 257.119 202.757ZM257.119 196.732C260.087 196.732 262.488 195.793 264.322 193.916C266.199 191.995 267.138 189.354 267.138 185.992V185.403C267.138 182.041 266.221 179.422 264.388 177.545C262.554 175.624 260.131 174.663 257.119 174.663C254.194 174.663 251.793 175.624 249.915 177.545C248.082 179.422 247.165 182.041 247.165 185.403V185.992C247.165 189.354 248.082 191.995 249.915 193.916C251.793 195.793 254.194 196.732 257.119 196.732ZM219.783 169.556V201.84H226.528V182.849C226.528 180.361 227.227 178.527 228.624 177.349C230.021 176.126 231.811 175.515 233.994 175.515H238.119V169.425H234.255C232.553 169.425 231.112 169.752 229.933 170.407C228.798 171.018 227.969 172.001 227.445 173.354H226.397V169.556H219.783ZM176.298 201.84V195.553H182.453V162.287H176.298V156H194.634C200.746 156 205.417 157.55 208.648 160.649C211.922 163.749 213.559 168.42 213.559 174.663V183.242C213.559 189.485 211.922 194.156 208.648 197.256C205.417 200.312 200.746 201.84 194.634 201.84H176.298ZM189.591 195.422H194.699C198.672 195.422 201.619 194.418 203.54 192.41C205.461 190.402 206.421 187.411 206.421 183.438V174.401C206.421 170.385 205.461 167.394 203.54 165.43C201.619 163.465 198.672 162.483 194.699 162.483H189.591V195.422ZM150.488 168.556V200.84H157.233V181.85C157.233 179.361 157.932 177.527 159.329 176.349C160.726 175.126 162.516 174.515 164.698 174.515H168.824V168.425H164.96C163.258 168.425 161.817 168.752 160.638 169.407C159.503 170.018 158.674 171.001 158.15 172.354H157.102V168.556H150.488ZM124.678 201.757C122.364 201.757 120.29 201.364 118.457 200.578C116.667 199.792 115.226 198.635 114.135 197.107C113.087 195.579 112.563 193.724 112.563 191.541C112.563 189.314 113.087 187.481 114.135 186.04C115.226 184.556 116.689 183.443 118.522 182.7C120.399 181.958 122.517 181.587 124.874 181.587H134.697V179.492C134.697 177.614 134.129 176.108 132.994 174.973C131.859 173.838 130.113 173.27 127.756 173.27C125.442 173.27 123.674 173.816 122.451 174.908C121.229 175.999 120.421 177.418 120.028 179.164L113.742 177.134C114.266 175.388 115.095 173.816 116.23 172.419C117.409 170.979 118.959 169.822 120.88 168.948C122.801 168.075 125.114 167.639 127.821 167.639C132.012 167.639 135.308 168.708 137.709 170.848C140.11 172.987 141.311 176.021 141.311 179.95V193.244C141.311 194.553 141.922 195.208 143.145 195.208H145.895V200.84H140.853C139.325 200.84 138.08 200.447 137.12 199.661C136.16 198.875 135.679 197.806 135.679 196.452V196.256H134.697C134.348 196.911 133.824 197.675 133.125 198.548C132.427 199.421 131.401 200.185 130.048 200.84C128.694 201.451 126.904 201.757 124.678 201.757ZM125.66 196.19C128.367 196.19 130.55 195.426 132.209 193.898C133.868 192.327 134.697 190.188 134.697 187.481V186.826H125.267C123.477 186.826 122.037 187.219 120.945 188.005C119.854 188.747 119.308 189.86 119.308 191.344C119.308 192.829 119.876 194.008 121.011 194.881C122.146 195.754 123.695 196.19 125.66 196.19ZM80.6305 199.792C82.9006 201.102 85.3672 201.757 88.0303 201.757C91.1736 201.757 93.5747 201.189 95.2337 200.054C96.9363 198.919 98.2024 197.653 99.0319 196.256H100.08V200.84H106.694V155H99.9486V172.943H98.9009C98.4207 172.07 97.7221 171.24 96.8054 170.455C95.8886 169.625 94.7098 168.948 93.2691 168.424C91.8721 167.901 90.1258 167.639 88.0303 167.639C85.3236 167.639 82.8352 168.294 80.565 169.603C78.2948 170.913 76.4831 172.812 75.1297 175.3C73.7763 177.789 73.0997 180.758 73.0997 184.206V185.189C73.0997 188.681 73.7763 191.672 75.1297 194.16C76.5267 196.605 78.3603 198.482 80.6305 199.792ZM97.1328 193.047C95.2555 194.924 92.8544 195.863 89.9294 195.863C87.048 195.863 84.6469 194.924 82.726 193.047C80.8488 191.17 79.9101 188.485 79.9101 184.992V184.403C79.9101 180.954 80.8488 178.291 82.726 176.414C84.6469 174.536 87.048 173.598 89.9294 173.598C92.8981 173.598 95.321 174.536 97.1983 176.414C99.0755 178.291 100.014 180.954 100.014 184.403V184.992C100.014 188.485 99.0537 191.17 97.1328 193.047ZM49.6277 201.757C47.3139 201.757 45.2402 201.364 43.4066 200.578C41.6167 199.792 40.176 198.635 39.0846 197.107C38.0368 195.579 37.5129 193.724 37.5129 191.541C37.5129 189.314 38.0368 187.481 39.0846 186.04C40.176 184.556 41.6385 183.443 43.4721 182.7C45.3493 181.958 47.4667 181.587 49.8242 181.587H59.647V179.492C59.647 177.614 59.0794 176.108 57.9444 174.973C56.8093 173.838 55.063 173.27 52.7055 173.27C50.3917 173.27 48.6236 173.816 47.4012 174.908C46.1788 175.999 45.3712 177.418 44.9783 179.164L38.6917 177.134C39.2156 175.388 40.045 173.816 41.1801 172.419C42.3588 170.979 43.9087 169.822 45.8296 168.948C47.7505 168.075 50.0643 167.639 52.771 167.639C56.9621 167.639 60.2582 168.708 62.6593 170.848C65.0604 172.987 66.261 176.021 66.261 179.95V193.244C66.261 194.553 66.8722 195.208 68.0946 195.208H70.845V200.84H65.8026C64.2746 200.84 63.0304 200.447 62.0699 199.661C61.1095 198.875 60.6293 197.806 60.6293 196.452V196.256H59.647C59.2977 196.911 58.7738 197.675 58.0753 198.548C57.3768 199.421 56.3509 200.185 54.9975 200.84C53.6442 201.451 51.8542 201.757 49.6277 201.757ZM50.61 196.19C53.3167 196.19 55.4996 195.426 57.1585 193.898C58.8175 192.327 59.647 190.188 59.647 187.481V186.826H50.2171C48.4272 186.826 46.9865 187.219 45.8951 188.005C44.8036 188.747 44.2579 189.86 44.2579 191.344C44.2579 192.829 44.8255 194.008 45.9605 194.881C47.0956 195.754 48.6454 196.19 50.61 196.19ZM0 155V200.84H7.07242V182.766H21.0208C22.3742 182.766 23.3564 183.115 23.9676 183.814C24.5788 184.512 24.8844 185.451 24.8844 186.629V200.84H32.0223V185.647C32.0223 183.726 31.5203 182.264 30.5162 181.26C29.5121 180.212 28.1805 179.644 26.5216 179.557V178.509C28.4861 177.811 30.1451 176.61 31.4985 174.908C32.8955 173.161 33.594 170.847 33.594 167.966V167.246C33.594 164.714 32.9828 162.531 31.7604 160.697C30.5817 158.864 28.9009 157.467 26.718 156.506C24.5788 155.502 22.0904 155 19.2527 155H0ZM18.4669 176.348H7.07242V161.418H18.4669C21.0426 161.418 23.0072 162.072 24.3606 163.382C25.7576 164.648 26.4561 166.394 26.4561 168.621V169.145C26.4561 171.371 25.7576 173.139 24.3606 174.449C22.9635 175.715 20.999 176.348 18.4669 176.348Z" fill="#070707"/>
</svg>
